<svg width="1123" height="153" viewBox="0 0 1123 153" fill="none" xmlns="http://www.w3.org/2000/svg">
<path d="M0.84375 148V4.15234H44.5938L73.207 113.625L101.43 4.15234H145.375V148H117.641V31.9844L88.4414 148H58.168L28.5781 31.9844V148H0.84375ZM224.773 32.9609L204.852 94.1914H244.793L224.773 32.9609ZM207.586 4.15234H241.766L293.621 148H262.566L252.801 118.41H197.039L187.566 148H156.414L207.586 4.15234ZM334.152 67.043H368.918C376.47 67.043 382.004 65.513 385.52 62.4531C389.1 59.3932 390.891 54.5755 390.891 48C390.891 41.75 389.165 37.0299 385.715 33.8398C382.264 30.5846 377.121 28.957 370.285 28.957H334.152V67.043ZM304.562 148V4.15234H374.289C389.979 4.15234 401.6 7.50521 409.152 14.2109C416.704 20.9167 420.48 31.1706 420.48 44.9727C420.48 53.7617 418.625 61.0859 414.914 66.9453C411.268 72.8047 405.995 76.8086 399.094 78.957C405.344 81.1706 409.771 84.556 412.375 89.1133C415.044 93.6706 416.574 100.767 416.965 110.402L417.551 127.395C417.551 127.525 417.551 127.72 417.551 127.98C417.746 136.574 419.602 141.783 423.117 143.605V148H390.695C389.654 145.982 388.84 143.508 388.254 140.578C387.733 137.583 387.408 134.035 387.277 129.934L386.887 114.797C386.561 105.878 384.868 99.8555 381.809 96.7305C378.814 93.6055 373.378 92.043 365.5 92.043H334.152V148H304.562ZM444.312 148V4.15234H473.902V148H444.312ZM500.859 148V4.15234H531.816L590.215 102.98V4.15234H619.414V148H588.848L530.059 49.1719V148H500.859ZM645.102 148V4.15234H749.496V29.1523H674.301V59.8164H743.051V84.4258H674.301V121.438H753.012V148H645.102ZM771.766 148V4.15234H801.355V121.438H871.57V148H771.766ZM883.781 148V4.15234H913.371V121.438H983.586V148H883.781ZM1012.5 76.2227C1012.5 92.043 1016.01 104.348 1023.04 113.137C1030.07 121.861 1039.9 126.223 1052.54 126.223C1065.3 126.223 1075.22 121.861 1082.32 113.137C1089.42 104.348 1092.96 92.043 1092.96 76.2227C1092.96 60.4023 1089.42 48.1302 1082.32 39.4062C1075.22 30.6172 1065.3 26.2227 1052.54 26.2227C1039.9 26.2227 1030.07 30.5846 1023.04 39.3086C1016.01 48.0326 1012.5 60.3372 1012.5 76.2227ZM982.32 76.2227C982.32 52.9805 988.635 34.556 1001.27 20.9492C1013.96 7.27734 1031.05 0.441406 1052.54 0.441406C1074.02 0.441406 1091.11 7.27734 1103.8 20.9492C1116.57 34.6211 1122.95 53.0456 1122.95 76.2227C1122.95 99.3997 1116.57 117.824 1103.8 131.496C1091.11 145.168 1074.02 152.004 1052.54 152.004C1031.05 152.004 1013.96 145.168 1001.27 131.496C988.635 117.824 982.32 99.3997 982.32 76.2227Z" fill="black"/>
</svg>
