<svg width="362" height="150" viewBox="0 0 362 150" fill="none" xmlns="http://www.w3.org/2000/svg">
<path d="M30.6289 67.7539H59.2422C66.9896 67.7539 72.6211 66.1263 76.1367 62.8711C79.6523 59.5508 81.4102 54.2448 81.4102 46.9531C81.4102 40.1172 79.6849 34.9414 76.2344 31.4258C72.7839 27.9102 67.6406 26.1523 60.8047 26.1523H30.6289V67.7539ZM30.4336 93.8281V145H0.84375V1.15234H64.8086C79.9128 1.15234 91.3385 5.09115 99.0859 12.9688C106.898 20.7812 110.805 32.2721 110.805 47.4414C110.805 62.2852 106.996 73.7435 99.3789 81.8164C91.7617 89.8242 80.8893 93.8281 66.7617 93.8281H30.4336ZM170.867 29.9609L150.945 91.1914H190.887L170.867 29.9609ZM153.68 1.15234H187.859L239.715 145H208.66L198.895 115.41H143.133L133.66 145H102.508L153.68 1.15234ZM246.262 0.761719H276.145V90.9961C276.145 102.129 278.358 110.267 282.785 115.41C287.212 120.488 294.243 123.027 303.879 123.027C313.645 123.027 320.741 120.488 325.168 115.41C329.66 110.332 331.906 102.194 331.906 90.9961V0.761719H361.496V94.2188C361.496 111.862 356.548 125.404 346.652 134.844C336.822 144.284 322.629 149.004 304.074 149.004C285.389 149.004 271.066 144.316 261.105 134.941C251.21 125.501 246.262 111.927 246.262 94.2188V0.761719Z" fill="black"/>
</svg>
