<svg width="176" height="16" viewBox="0 0 176 16" fill="none" xmlns="http://www.w3.org/2000/svg">
<path d="M3.91059 7.37688H5.20747C6.64401 7.37688 7.36228 6.74707 7.36228 5.48744C7.36228 4.22781 6.64401 3.59799 5.20747 3.59799H3.91059V7.37688ZM3.91059 15.5779H0V0.422111H6.22502C7.91429 0.422111 9.20452 0.864322 10.0957 1.74874C11.0002 2.63317 11.4524 3.8794 11.4524 5.48744C11.4524 7.09548 11.0002 8.34171 10.0957 9.22613C9.20452 10.1106 7.91429 10.5528 6.22502 10.5528H3.91059V15.5779Z" fill="black"/>
<path d="M20.8646 9.94975L19.1089 4.90452L17.3531 9.94975H20.8646ZM21.9021 12.9447H16.3156L15.4177 15.5779H11.2478L16.974 0.422111H21.2437L26.9699 15.5779H22.8L21.9021 12.9447Z" fill="black"/>
<path d="M32.1629 0.422111V8.66332C32.1629 9.10553 32.1762 9.56114 32.2028 10.0302C32.2427 10.4858 32.3425 10.9012 32.5021 11.2764C32.675 11.6516 32.941 11.9598 33.3002 12.201C33.6593 12.4288 34.1648 12.5427 34.8165 12.5427C35.4683 12.5427 35.9671 12.4288 36.3129 12.201C36.6721 11.9598 36.9381 11.6516 37.111 11.2764C37.2839 10.9012 37.3837 10.4858 37.4103 10.0302C37.4502 9.56114 37.4701 9.10553 37.4701 8.66332V0.422111H41.3608V9.20603C41.3608 11.5645 40.8221 13.2864 39.7447 14.3719C38.6806 15.4573 37.0378 16 34.8165 16C32.5952 16 30.9458 15.4573 29.8684 14.3719C28.791 13.2864 28.2523 11.5645 28.2523 9.20603V0.422111H32.1629Z" fill="black"/>
<path d="M50.624 15.5779L53.1778 0.422111H57.0485L60.0612 8.50251L63.054 0.422111H66.9247L69.4786 15.5779H65.5879L64.2911 6.85427L60.7396 15.5779H59.1834L55.8115 6.85427L54.5146 15.5779H50.624Z" fill="black"/>
<path d="M80.1361 9.94975L78.3803 4.90452L76.6245 9.94975H80.1361ZM81.1736 12.9447H75.587L74.6892 15.5779H70.5192L76.2454 0.422111H80.5151L86.2414 15.5779H82.0714L81.1736 12.9447Z" fill="black"/>
<path d="M91.863 7.19598H92.6012C93.3727 7.19598 93.9646 7.03518 94.3769 6.71357C94.7893 6.39196 94.9954 5.92965 94.9954 5.32663C94.9954 4.72362 94.7893 4.26131 94.3769 3.9397C93.9646 3.61809 93.3727 3.45729 92.6012 3.45729H91.863V7.19598ZM100.462 15.5779H95.594L91.863 9.74874V15.5779H87.9524V0.422111H94.0378C94.8757 0.422111 95.6073 0.549414 96.2325 0.804021C96.8576 1.04523 97.3697 1.38023 97.7688 1.80904C98.1811 2.23786 98.4871 2.73367 98.6866 3.29648C98.8994 3.8593 99.0058 4.46231 99.0058 5.10553C99.0058 6.25796 98.7265 7.19598 98.1678 7.9196C97.6225 8.62982 96.8111 9.11223 95.7337 9.36683L100.462 15.5779Z" fill="black"/>
<path d="M106.009 0.422111V15.5779H102.098V0.422111H106.009Z" fill="black"/>
<path d="M109.151 15.5779V0.422111H113.062L120.285 9.68844V0.422111H124.175V15.5779H120.285L113.062 6.31156V15.5779H109.151Z" fill="black"/>
<path d="M135.89 3.75879H131.241V6.29146H135.63V9.62814H131.241V12.2412H135.89V15.5779H127.33V0.422111H135.89V3.75879Z" fill="black"/>
<path d="M142.62 0.422111V12.2412H147.308V15.5779H138.709V0.422111H142.62Z" fill="black"/>
<path d="M153.239 0.422111V12.2412H157.927V15.5779H149.328V0.422111H153.239Z" fill="black"/>
<path d="M163.067 8C163.067 8.60301 163.18 9.15913 163.406 9.66834C163.632 10.1776 163.938 10.6198 164.324 10.995C164.709 11.3702 165.155 11.665 165.66 11.8794C166.179 12.0804 166.724 12.1809 167.296 12.1809C167.868 12.1809 168.407 12.0804 168.913 11.8794C169.431 11.665 169.884 11.3702 170.269 10.995C170.668 10.6198 170.981 10.1776 171.207 9.66834C171.433 9.15913 171.546 8.60301 171.546 8C171.546 7.39698 171.433 6.84087 171.207 6.33166C170.981 5.82245 170.668 5.38023 170.269 5.00502C169.884 4.62982 169.431 4.34171 168.913 4.1407C168.407 3.9263 167.868 3.8191 167.296 3.8191C166.724 3.8191 166.179 3.9263 165.66 4.1407C165.155 4.34171 164.709 4.62982 164.324 5.00502C163.938 5.38023 163.632 5.82245 163.406 6.33166C163.18 6.84087 163.067 7.39698 163.067 8ZM158.976 8C158.976 6.87437 159.183 5.82915 159.595 4.86432C160.007 3.8861 160.579 3.03518 161.311 2.31156C162.042 1.58794 162.914 1.02513 163.925 0.623116C164.949 0.207705 166.073 0 167.296 0C168.507 0 169.624 0.207705 170.648 0.623116C171.673 1.02513 172.55 1.58794 173.282 2.31156C174.027 3.03518 174.606 3.8861 175.018 4.86432C175.43 5.82915 175.636 6.87437 175.636 8C175.636 9.12563 175.43 10.1776 175.018 11.1558C174.606 12.1206 174.027 12.9648 173.282 13.6884C172.55 14.4121 171.673 14.9816 170.648 15.397C169.624 15.799 168.507 16 167.296 16C166.073 16 164.949 15.799 163.925 15.397C162.914 14.9816 162.042 14.4121 161.311 13.6884C160.579 12.9648 160.007 12.1206 159.595 11.1558C159.183 10.1776 158.976 9.12563 158.976 8Z" fill="black"/>
</svg>
